<?xml version="1.0"?>
<svg version="1.1" xmlns="http://www.w3.org/2000/svg" width="120" height="55" style=""><path fill="#0d450d" d="M34.775,31.8q-0.925,0.375-1.5875,0.375t-0.6625-0.275q0-0.175,0.7375-0.2t1.0625-0.175q0.95-0.5,0.95-1.475q0-0.5-0.275-1.05q-0.8-1.425-3.875-1.425q-1.775,0-3.55,0.5375t-2.975,1.65t-1.2,2.0625q0,1.45,2.875,2.125l2.95,0.55q1.775,0.325,2.65,0.9q1.15,0.7,1.15,2q0,0.525-0.175,1.125q-0.8,2.7-4.125,4.125q-2.775,1.225-6.55,1.225q-1.075,0-1.875-0.1q0.8,0.45,2.1,0.775q0.1,0.025,0.1,0.1q0,0.225-0.525,0.225q-1.025,0-2.55-1.225q-2.075-0.325-3.1-1.15q-0.65-0.525-1.2-1.55t-0.55-1.85t0.325-1.375q0.75-1.325,1.9-1.325q0.875,0,1.025,1.475q0.35,2.85,0.475,3.25q0.375,1.225,1.275,2.075q1.05,0.225,2.275,0.225q2.7,0,5.3-1.075t3.75-3.05q0.475-0.775,0.475-1.375q0-1.175-2.075-1.825l-4.4-1q-1.35-0.325-2.1625-1.075t-0.8125-1.725q0-1.5,1.875-3q1.425-1.15,3.4875-1.7875t4.05-0.6375t3.2875,0.575q1.675,0.775,1.675,2.2625t-1.525,2.0875z M18.675,42.95q-1.45-1.6-1.85-4.375q-0.225-1.575-0.425-1.575t-0.375,0.1125t-0.35,0.4875t-0.175,0.975q0,1.925,1.35,3.3q0.675,0.7,1.825,1.075z M41.32925,34.45l3.6-0.05q0.075,0.05,0.075,0.075q0,0.225-3.1125,0.625t-3.3625,0.475q-0.475,0.425-1.75,2.5375t-1.275,3.0875q0,0.925,1.275,0.925q0.6,0,1.575-0.375t1.5-0.7q1.4-0.875,3-2.575q0.35-0.35,0.475-0.35q0.075,0,0.075,0.15t-0.375,0.6q-1.3,1.6-2.925,2.575q-1.95,1.2-3.725,1.2q-0.775,0-1.2625-0.3375t-0.4875-1.3625t0.9-2.8125t1.375-2.6625q-0.35,0.075-0.6,0.075q-0.725,0-0.725-0.575q0-0.425,0.6-0.6q0.075,0,0.225-0.025l1.45,0q0.45-0.575,1.025-1.325q0.7-0.9,0.95-0.9t0.625,0.2t0.375,0.475t-1.2,1.625q0.65,0.025,1.7,0.025z M50.3335,42.65q-0.125,0.025-0.5375,0.025t-0.825-0.325t-0.4125-0.8375t0.1875-1.1375t0.2625-0.95q-2.875,3.35-4.5,3.35q-1.025,0-1.125-1.275l0-0.175q0-1.075,1.3-2.9q-0.725,0.65-1.475,1.5q-0.1,0.1-0.25,0.1q-0.1,0-0.1-0.125t0.225-0.425l3.45-4.05q0.65-0.75,1.325-0.75t0.675,0.45q0,0.175-0.15,0.325q-1,0.925-2.5125,3.075t-1.5125,3.175q0,0.45,0.3,0.45q1.05,0,3.05-2.075q0.7-0.7,2.6-3.0875t2.5-2.3875q0.9,0,0.9,0.7q0,0.25-1.05,1.45q-1.425,1.725-2.175,2.8125t-0.75,1.7625t0.375,0.675q0.175,0,0.4-0.1q1.725-0.75,4.125-3.5q0.15-0.175,0.3-0.175t0.15,0.1625t-0.175,0.3625q-1.075,1.25-2.525,2.5125t-2.05,1.3875z M63.26275,34.925q2.8-4.55,3.9-4.55q0.175,0,0.4875,0.1125t0.3125,0.3375q0,0.125-0.125,0.325q-2,2.45-2.975,3.675q-2.95,3.725-3.25,5.35q-0.075,0.35-0.075,0.7q0,1.125,0.925,1.125q1.85,0,4.825-3.425q0.25-0.25,0.425-0.2875t0.175,0.0875t-0.15,0.3q-2.9,3.475-5.15,3.875q-0.125,0.025-0.35,0.025q-0.775,0-1.1625-0.5375t-0.3875-1.1625q0-0.7,0.275-1.55l-2.025,2.025q-1.375,1.275-2.1625,1.275t-1.3125-0.425q-0.625-0.475-0.625-1.325q0-1.825,2.55-4.3625t4.675-2.5375q0.7,0,0.975,0.375q0.1,0.125,0.225,0.575z M55.88775,41.175q0,0.9,0.625,0.9q1.075,0,3.575-2.95q0.45-0.525,3-3.925q-0.175-0.3-0.6-0.3q-1.55,0-4.075,2.3625t-2.525,3.9125z M73.9795,32.5375q0.3375,0.2375,0.3375,0.5625t-0.3125,0.5625t-0.6875,0.2375t-0.6875-0.275t-0.3125-0.625q0-0.7,0.95-0.7q0.375,0,0.7125,0.2375z M68.742,42.775q-1.275,0-1.275-1.65q0-1.35,1.475-3.7375t2.375-2.4125q0.25,0,0.5625,0.2t0.3125,0.4q-0.125,0.175-0.3,0.3875t-0.375,0.4625t-0.55,0.7125t-0.675,0.8875q-1.875,2.425-1.875,3.3375t0.625,0.9125q0.525,0,1.425-0.575q2.1-1.3,3.325-2.85q0.45-0.575,0.6125-0.575t0.1625,0.2t-0.575,0.8t-0.9125,0.95t-0.4625,0.4625t-0.4625,0.425t-0.5125,0.4375t-0.5,0.375t-0.575,0.3625t-0.575,0.2625q-0.525,0.225-1.25,0.225z M81.12125,37.2q0,0.875-1.675,2.925q-1.975,2.425-3.375,2.425l-0.4,0q-0.65,0-1.025-0.675q-0.3-0.475-0.3-1.05q0-1.5,2.1875-4.2125t3.5375-2.7125q1.275,0,1.275,1.35q0,0.35-0.125,0.9q0.025,0.075,0.475,0.075t1.375-0.475q-0.025,0.425-1.975,1.225q0.025,0.1,0.025,0.225z M79.49625,35.9q-0.85,0-2.4125,2t-1.5625,2.95t0.6,0.95q1.075,0,2.725-1.95t1.65-2.8q-0.4-0.225-1-1.15z"/><path fill="#ed0707" d="M88.0755,48.5l0-2.975l2.17-0.875l7.07-8.54l-6.51-8.47l-2.03-0.665l0-2.975l10.5-0.175l0,3.15l-1.75,0.595l3.605,4.795l3.43-4.655l-1.89-0.735l0-2.975l10.08-0.175l0,3.15l-2.31,0.7l-6.44,8.155l6.825,8.855l2.45,0.84l0,2.975l-10.85,0l0-2.975l1.61-0.7l-3.85-5.18l-3.92,5.04l2.205,0.84l0,2.975l-10.395,0z"/></svg>
